<svg width="73" height="73" viewBox="0 0 73 73" fill="none" xmlns="http://www.w3.org/2000/svg">
<circle cx="36.5" cy="48.6666" r="9.125" stroke="#06A09C" stroke-width="3"/>
<path d="M36.5 58.5822L29.6171 65.1809C28.6314 66.1259 28.1385 66.5984 27.7211 66.762C26.77 67.1345 25.715 66.8157 25.2147 66.0044C24.9951 65.6484 24.9267 65.0063 24.7899 63.722C24.7126 62.9969 24.674 62.6343 24.5567 62.3307C24.2942 61.6508 23.7426 61.122 23.0335 60.8703C22.7168 60.7579 22.3386 60.7209 21.5823 60.6468C20.2427 60.5156 19.5729 60.45 19.2015 60.2395C18.3553 59.7599 18.0227 58.7484 18.4114 57.8366C18.5819 57.4365 19.0748 56.9639 20.0605 56.0189L24.5567 51.7083L27.7211 48.5439" stroke="#06A09C" stroke-width="3"/>
<path d="M36.5 58.5823L43.3829 65.181C44.3686 66.126 44.8615 66.5985 45.2789 66.762C46.23 67.1346 47.285 66.8157 47.7853 66.0045C48.0049 65.6485 48.0733 65.0063 48.2101 63.7221C48.2874 62.9969 48.326 62.6344 48.4433 62.3307C48.7058 61.6509 49.2574 61.1221 49.9665 60.8704C50.2832 60.758 50.6614 60.7209 51.4177 60.6469C52.7573 60.5157 53.4271 60.4501 53.7985 60.2396C54.6447 59.7599 54.9773 58.7485 54.5886 57.8366C54.4181 57.4365 53.9252 56.964 52.9395 56.019L48.4433 51.7084L45.625 48.8901" stroke="#06A09C" stroke-width="3"/>
<path d="M52.6808 54.7371C58.6803 54.6734 62.0242 54.2974 64.2442 52.0774C66.9168 49.4047 66.9168 45.1032 66.9168 36.5V24.3334C66.9168 15.7302 66.9168 11.4287 64.2442 8.75602C61.5715 6.08337 57.27 6.08337 48.6668 6.08337L24.3335 6.08338C15.7304 6.08338 11.4288 6.08338 8.75615 8.75603C6.0835 11.4287 6.0835 15.7302 6.0835 24.3334L6.0835 36.5C6.0835 45.1032 6.0835 49.4047 8.75615 52.0774C11.0933 54.4146 14.6761 54.7079 21.2918 54.7448" stroke="#06A09C" stroke-width="3"/>
<path d="M27.375 18.25H45.625" stroke="#06A09C" stroke-width="3" stroke-linecap="round"/>
<path d="M21.2915 28.8959H51.7082" stroke="#06A09C" stroke-width="3" stroke-linecap="round"/>
</svg>
