<svg width="73" height="73" viewBox="0 0 73 73" fill="none" xmlns="http://www.w3.org/2000/svg">
<path fill-rule="evenodd" clip-rule="evenodd" d="M47.4836 4.81696C52.5227 4.09709 57.0311 8.00722 57.0311 13.0975V17.2843C60.649 19.1968 63.1144 22.998 63.1144 27.375V57.7917C63.1144 64.0912 58.0077 69.1979 51.7082 69.1979H21.2915C14.992 69.1979 9.88525 64.0912 9.88525 57.7917V15.2083C9.88525 15.1801 9.88577 15.1519 9.88679 15.1239C9.88577 15.0801 9.88525 15.0362 9.88525 14.9922C9.88525 12.2356 11.9122 9.89859 14.641 9.50876L47.4836 4.81696ZM14.4478 20.5313V57.7917C14.4478 61.5714 17.5118 64.6354 21.2915 64.6354H51.7082C55.4879 64.6354 58.5519 61.5714 58.5519 57.7917V27.375C58.5519 23.5953 55.4879 20.5313 51.7082 20.5313H14.4478ZM15.4243 15.9688H52.4686V13.0975C52.4686 10.7837 50.4193 9.00639 48.1288 9.33361L15.2862 14.0254C14.8051 14.0941 14.4478 14.5062 14.4478 14.9922C14.4478 15.5315 14.885 15.9688 15.4243 15.9688ZM22.0519 36.5C22.0519 35.2401 23.0733 34.2188 24.3332 34.2188H48.6665C49.9264 34.2188 50.9478 35.2401 50.9478 36.5C50.9478 37.7599 49.9264 38.7813 48.6665 38.7813H24.3332C23.0733 38.7813 22.0519 37.7599 22.0519 36.5ZM22.0519 47.1458C22.0519 45.8859 23.0733 44.8646 24.3332 44.8646H41.0623C42.3222 44.8646 43.3436 45.8859 43.3436 47.1458C43.3436 48.4057 42.3222 49.4271 41.0623 49.4271H24.3332C23.0733 49.4271 22.0519 48.4057 22.0519 47.1458Z" fill="#878787"/>
</svg>
