<svg width="73" height="73" viewBox="0 0 73 73" fill="none" xmlns="http://www.w3.org/2000/svg">
<path opacity="0.5" d="M33.1354 66.9167H39.864C50.3473 66.9167 55.5889 66.9167 59.163 63.8391C62.7372 60.7615 63.4785 55.6098 64.961 45.3064L64.961 45.3064L65.8089 39.4136C66.9631 31.3925 67.5402 27.382 65.8963 23.953C64.2524 20.524 60.7534 18.4397 53.7553 14.271L53.7553 14.271L49.5431 11.7618C43.1882 7.97617 40.0107 6.08337 36.4997 6.08337C32.9886 6.08337 29.8112 7.97617 23.4562 11.7618L19.244 14.271L19.244 14.271C12.246 18.4397 8.74698 20.524 7.10308 23.953C5.45918 27.382 6.03625 31.3925 7.19039 39.4135L8.03831 45.3063C9.52086 55.6098 10.2621 60.7615 13.8363 63.8391C17.4105 66.9167 22.6521 66.9167 33.1354 66.9167Z" fill="#878787"/>
<path d="M28.7336 46.8327C27.7214 46.0825 26.2927 46.2948 25.5425 47.307C24.7922 48.3191 25.0045 49.7479 26.0167 50.4981C28.9744 52.6905 32.5917 53.9883 36.5001 53.9883C40.4086 53.9883 44.0258 52.6905 46.9836 50.4981C47.9958 49.7479 48.2081 48.3191 47.4578 47.307C46.7076 46.2948 45.2789 46.0825 44.2667 46.8327C42.0513 48.4749 39.3773 49.4258 36.5001 49.4258C33.623 49.4258 30.949 48.4749 28.7336 46.8327Z" fill="#878787"/>
</svg>
