<svg width="73" height="73" viewBox="0 0 73 73" fill="none" xmlns="http://www.w3.org/2000/svg">
<path d="M38.0208 9.12504H23.725C18.6145 9.12504 16.0593 9.12504 14.1073 10.1196C12.3904 10.9945 10.9944 12.3904 10.1196 14.1074C9.125 16.0593 9.125 18.6146 9.125 23.725V49.275C9.125 54.3855 9.125 56.9408 10.1196 58.8927C10.9944 60.6097 12.3904 62.0056 14.1073 62.8805C16.0593 63.875 18.6145 63.875 23.725 63.875H51.7083C54.537 63.875 55.9513 63.875 57.1117 63.5641C60.2607 62.7204 62.7203 60.2607 63.5641 57.1118C63.875 55.9514 63.875 54.537 63.875 51.7084M57.7917 24.3334V6.08337M48.6667 15.2084H66.9167M31.9375 25.8542C31.9375 29.2139 29.2139 31.9375 25.8542 31.9375C22.4944 31.9375 19.7708 29.2139 19.7708 25.8542C19.7708 22.4945 22.4944 19.7709 25.8542 19.7709C29.2139 19.7709 31.9375 22.4945 31.9375 25.8542ZM45.5947 36.2511L19.8656 59.6412C18.4184 60.9568 17.6948 61.6146 17.6308 62.1845C17.5753 62.6784 17.7647 63.1683 18.138 63.4964C18.5687 63.875 19.5466 63.875 21.5024 63.875H50.0536C54.4311 63.875 56.6198 63.875 58.3389 63.1396C60.497 62.2164 62.2164 60.4971 63.1396 58.339C63.875 56.6198 63.875 54.4311 63.875 50.0536C63.875 48.5808 63.875 47.8443 63.714 47.1585C63.5116 46.2966 63.1236 45.4893 62.577 44.7928C62.142 44.2387 61.5669 43.7786 60.4168 42.8585L51.9086 36.0519C50.7575 35.131 50.1819 34.6706 49.5481 34.5081C48.9895 34.3649 48.4016 34.3834 47.8531 34.5616C47.2308 34.7637 46.6854 35.2595 45.5947 36.2511Z" stroke="#444444" stroke-width="3" stroke-linecap="round" stroke-linejoin="round"/>
</svg>
