<svg width="73" height="73" viewBox="0 0 73 73" fill="none" xmlns="http://www.w3.org/2000/svg">
<path d="M33.9023 21.3601C35.0581 19.2867 35.636 18.25 36.5 18.25C37.364 18.25 37.9419 19.2867 39.0977 21.3601L39.3968 21.8966C39.7252 22.4858 39.8894 22.7804 40.1455 22.9747C40.4015 23.1691 40.7204 23.2413 41.3583 23.3856L41.9389 23.517C44.1834 24.0248 45.3056 24.2787 45.5726 25.1373C45.8396 25.9959 45.0745 26.8905 43.5444 28.6798L43.1485 29.1427C42.7137 29.6512 42.4963 29.9054 42.3985 30.2199C42.3007 30.5344 42.3336 30.8736 42.3993 31.552L42.4592 32.1696C42.6905 34.5569 42.8062 35.7506 42.1072 36.2812C41.4082 36.8118 40.3574 36.328 38.2559 35.3604L37.7123 35.1101C37.1151 34.8352 36.8165 34.6977 36.5 34.6977C36.1835 34.6977 35.8849 34.8352 35.2877 35.1101L34.7441 35.3604C32.6426 36.328 31.5918 36.8118 30.8928 36.2812C30.1938 35.7506 30.3095 34.5569 30.5408 32.1696L30.6007 31.552C30.6664 30.8736 30.6993 30.5344 30.6015 30.2199C30.5037 29.9054 30.2863 29.6512 29.8515 29.1427L29.4556 28.6798C27.9255 26.8905 27.1604 25.9959 27.4274 25.1373C27.6944 24.2787 28.8166 24.0248 31.0611 23.517L31.6417 23.3856C32.2796 23.2413 32.5985 23.1691 32.8545 22.9747C33.1106 22.7804 33.2748 22.4858 33.6032 21.8966L33.9023 21.3601Z" stroke="#878787" stroke-width="3"/>
<path d="M57.7918 27.375C57.7918 39.1341 48.2592 48.6667 36.5002 48.6667C24.7411 48.6667 15.2085 39.1341 15.2085 27.375C15.2085 15.616 24.7411 6.08337 36.5002 6.08337C48.2592 6.08337 57.7918 15.616 57.7918 27.375Z" stroke="#878787" stroke-width="3"/>
<path d="M36.5002 48.873L25.0287 60.7507C23.3858 62.4517 22.5644 63.3022 21.8687 63.5965C20.2836 64.2672 18.5252 63.6932 17.6913 62.233C17.3254 61.5922 17.2114 60.4363 16.9833 58.1246C16.8546 56.8194 16.7902 56.1668 16.5947 55.6202C16.1572 54.3965 15.2379 53.4446 14.056 52.9916C13.5281 52.7892 12.8978 52.7226 11.6372 52.5893C9.4046 52.3531 8.28827 52.2351 7.66936 51.8562C6.25905 50.9928 5.70474 49.1722 6.35247 47.5309C6.63672 46.8106 7.45814 45.9601 9.101 44.2591L16.5947 36.5" stroke="#878787" stroke-width="3"/>
<path d="M36.4998 48.873L47.9713 60.7507C49.6142 62.4517 50.4356 63.3022 51.1313 63.5965C52.7164 64.2672 54.4748 63.6932 55.3087 62.233C55.6746 61.5922 55.7886 60.4363 56.0167 58.1246C56.1454 56.8194 56.2098 56.1668 56.4053 55.6202C56.8428 54.3965 57.7621 53.4446 58.944 52.9916C59.4719 52.7892 60.1022 52.7226 61.3628 52.5893C63.5954 52.3531 64.7117 52.2351 65.3306 51.8562C66.7409 50.9928 67.2953 49.1722 66.6475 47.5309C66.3633 46.8106 65.5419 45.9601 63.899 44.2591L56.4053 36.5" stroke="#878787" stroke-width="3"/>
</svg>
