<svg width="24" height="24" viewBox="0 0 24 24" fill="none" xmlns="http://www.w3.org/2000/svg">
<path d="M14.2753 3.55599C14.3008 3.46081 14.3447 3.37158 14.4047 3.29339C14.4647 3.2152 14.5394 3.1496 14.6248 3.10032C14.7101 3.05104 14.8043 3.01906 14.902 3.0062C14.9996 2.99334 15.0989 2.99985 15.1941 3.02537C16.5844 3.38813 17.853 4.11497 18.869 5.13103C19.8851 6.14708 20.6119 7.41562 20.9747 8.80599C21.0002 8.90116 21.0067 9.00042 20.9939 9.09811C20.981 9.19579 20.949 9.28999 20.8997 9.37531C20.8505 9.46063 20.7849 9.53541 20.7067 9.59536C20.6285 9.65532 20.5393 9.69928 20.4441 9.72474C20.3807 9.74138 20.3155 9.74989 20.25 9.75005C20.0849 9.7501 19.9243 9.69564 19.7933 9.59512C19.6622 9.4946 19.5681 9.35364 19.5253 9.19412C19.2296 8.05893 18.6365 7.02316 17.8071 6.1936C16.9777 5.36403 15.942 4.77069 14.8069 4.47474C14.7116 4.44938 14.6223 4.40549 14.544 4.34558C14.4657 4.28566 14.4 4.2109 14.3506 4.12557C14.3013 4.04024 14.2692 3.94601 14.2563 3.84828C14.2433 3.75054 14.2498 3.65122 14.2753 3.55599ZM14.0569 7.47474C15.3497 7.81974 16.1803 8.6513 16.5253 9.94412C16.5681 10.1036 16.6622 10.2446 16.7933 10.3451C16.9243 10.4456 17.0849 10.5001 17.25 10.5001C17.3155 10.4999 17.3807 10.4914 17.4441 10.4747C17.5393 10.4493 17.6285 10.4053 17.7067 10.3454C17.7849 10.2854 17.8505 10.2106 17.8997 10.1253C17.949 10.04 17.981 9.94579 17.9939 9.84811C18.0067 9.75042 18.0002 9.65116 17.9747 9.55599C17.4947 7.75974 16.2403 6.50537 14.4441 6.02537C14.3489 5.99994 14.2497 5.99351 14.152 6.00644C14.0544 6.01938 13.9602 6.05141 13.8749 6.10073C13.7897 6.15005 13.7149 6.21568 13.655 6.29387C13.5951 6.37207 13.5512 6.46129 13.5258 6.55646C13.5004 6.65163 13.4939 6.75087 13.5069 6.84852C13.5198 6.94618 13.5518 7.04032 13.6012 7.12559C13.6505 7.21086 13.7161 7.28559 13.7943 7.34549C13.8725 7.4054 13.9617 7.44932 14.0569 7.47474ZM20.8472 14.8557L16.4306 12.8766L16.4184 12.871C16.1892 12.7729 15.939 12.7336 15.6907 12.7565C15.4424 12.7794 15.2037 12.8639 14.9963 13.0022C14.9718 13.0184 14.9484 13.0359 14.9259 13.0547L12.6441 15.0001C11.1984 14.2979 9.70595 12.8166 9.00376 11.3897L10.9519 9.07318C10.9706 9.04974 10.9884 9.0263 11.0053 9.00099C11.1407 8.79409 11.2229 8.55692 11.2445 8.31059C11.2661 8.06427 11.2264 7.81642 11.1291 7.58912V7.57787L9.14438 3.1538C9.0157 2.85687 8.79444 2.60951 8.51362 2.44865C8.2328 2.2878 7.9075 2.22208 7.58626 2.2613C6.31592 2.42847 5.14986 3.05234 4.30588 4.01639C3.4619 4.98045 2.99771 6.21876 3.00001 7.50005C3.00001 14.9438 9.05626 21.0001 16.5 21.0001C17.7813 21.0023 19.0196 20.5382 19.9837 19.6942C20.9477 18.8502 21.5716 17.6841 21.7388 16.4138C21.7781 16.0927 21.7125 15.7674 21.5518 15.4866C21.3911 15.2058 21.144 14.9845 20.8472 14.8557Z" fill="black"/>
</svg>
