<svg width="73" height="73" viewBox="0 0 73 73" fill="none" xmlns="http://www.w3.org/2000/svg">
<path d="M36.5016 45.625C41.5412 45.625 45.6266 41.5396 45.6266 36.5C45.6266 31.4604 41.5412 27.375 36.5016 27.375C31.462 27.375 27.3766 31.4604 27.3766 36.5C27.3766 41.5396 31.462 45.625 36.5016 45.625Z" stroke="#06A09C" stroke-width="3" stroke-linecap="round" stroke-linejoin="round"/>
<path d="M28.2559 58.9205L30.0336 62.9186C30.562 64.1087 31.4244 65.1199 32.5162 65.8296C33.608 66.5393 34.8823 66.9169 36.1845 66.9167C37.4867 66.9169 38.7609 66.5393 39.8527 65.8296C40.9445 65.1199 41.8069 64.1087 42.3354 62.9186L44.1131 58.9205C44.7459 57.5018 45.8104 56.3191 47.1548 55.5409C48.5076 54.7605 50.0727 54.4281 51.626 54.5912L55.9756 55.0542C57.2703 55.1912 58.577 54.9496 59.7372 54.3587C60.8973 53.7678 61.8612 52.853 62.5118 51.7253C63.1633 50.5982 63.4736 49.3063 63.4052 48.0063C63.3368 46.7063 62.8926 45.4541 62.1265 44.4016L59.5512 40.8631C58.6342 39.5938 58.1443 38.0659 58.1521 36.5C58.1518 34.9384 58.6464 33.4169 59.5648 32.1538L62.14 28.6154C62.9062 27.5629 63.3504 26.3107 63.4187 25.0107C63.4871 23.7107 63.1768 22.4188 62.5253 21.2917C61.8747 20.164 60.9109 19.2492 59.7507 18.6583C58.5905 18.0674 57.2839 17.8258 55.9891 17.9628L51.6395 18.4258C50.0862 18.5889 48.5212 18.2565 47.1683 17.4761C45.8212 16.6935 44.7565 15.5045 44.1266 14.0796L42.3354 10.0815C41.8069 8.89135 40.9445 7.88013 39.8527 7.17046C38.7609 6.46079 37.4867 6.08316 36.1845 6.08337C34.8823 6.08316 33.608 6.46079 32.5162 7.17046C31.4244 7.88013 30.562 8.89135 30.0336 10.0815L28.2559 14.0796C27.626 15.5045 26.5613 16.6935 25.2142 17.4761C23.8613 18.2565 22.2962 18.5889 20.743 18.4258L16.3798 17.9628C15.0851 17.8258 13.7784 18.0674 12.6183 18.6583C11.4581 19.2492 10.4943 20.164 9.84364 21.2917C9.19218 22.4188 8.88182 23.7107 8.95021 25.0107C9.0186 26.3107 9.4628 27.5629 10.2289 28.6154L12.8042 32.1538C13.7226 33.4169 14.2172 34.9384 14.2169 36.5C14.2172 38.0617 13.7226 39.5832 12.8042 40.8462L10.2289 44.3847C9.4628 45.4372 9.0186 46.6894 8.95021 47.9894C8.88182 49.2894 9.19218 50.5813 9.84364 51.7084C10.4949 52.8355 11.4589 53.7498 12.6189 54.3406C13.7789 54.9314 15.0852 55.1734 16.3798 55.0373L20.7294 54.5743C22.2827 54.4112 23.8478 54.7436 25.2007 55.524C26.5528 56.3044 27.6225 57.4936 28.2559 58.9205Z" stroke="#06A09C" stroke-width="3" stroke-linecap="round" stroke-linejoin="round"/>
</svg>
